<mxfile host="app.diagrams.net" modified="2024-07-03T18:00:56.214Z" agent="Mozilla/5.0 (Windows NT 10.0; Win64; x64; rv:127.0) Gecko/20100101 Firefox/127.0" version="24.6.2" etag="fr5Zxw9-k83Yge6CIofm" type="github">
  <diagram name="Page-1" id="QFF00q8nYHqBNvI7n6De">
    <mxGraphModel>
      <root>
        <mxCell id="0" />
        <mxCell id="1" parent="0" />
      </root>
    </mxGraphModel>
  </diagram>
</mxfile>
